<svg width="1381" height="302" viewBox="0 0 1381 302" fill="none" xmlns="http://www.w3.org/2000/svg">
<path d="M1012 158C1149.43 156.764 1409.5 43.9433 1190 72.4432C970.5 100.943 1380 256.943 1380 256.943" stroke="black" stroke-width="2" stroke-dasharray="6 6"/>
<path d="M1 250.443C1 250.443 66 169.943 153 239.443C240 308.943 210 81.9434 166.5 22.4434C123 -37.0566 59.5 39.9434 143.5 99.4434C227.5 158.943 274 150 351.5 158C429 166 1012 158 1012 158" stroke="black" stroke-width="2" stroke-dasharray="6 6"/>
<g filter="url(#filter0_d_245_20)">
<path d="M1049.93 133.05C1049.03 130.439 1050.42 127.594 1053.03 126.695L1104.09 109.127C1106.71 108.228 1109.55 109.617 1110.45 112.228L1128.02 163.29C1128.92 165.901 1127.53 168.746 1124.92 169.645L1073.85 187.213C1071.24 188.112 1068.4 186.723 1067.5 184.112L1049.93 133.05Z" fill="#F19EFF"/>
</g>
<g filter="url(#filter1_d_245_20)">
<rect x="241.957" y="110.4" width="64" height="64" rx="5" transform="rotate(14.0678 241.957 110.4)" fill="url(#paint0_linear_245_20)"/>
</g>
<g filter="url(#filter2_d_245_20)">
<rect width="48.5118" height="48.5118" rx="5" transform="matrix(-0.91886 -0.394584 -0.394584 0.91886 1297.72 196.085)" fill="#93A5EC"/>
</g>
<g filter="url(#filter3_d_245_20)">
<rect width="35.6249" height="35.6249" rx="5" transform="matrix(-0.340195 -0.940355 -0.940355 0.340195 207.62 256.443)" fill="#93A5EC"/>
</g>
<defs>
<filter id="filter0_d_245_20" x="1019.66" y="82.8533" width="138.634" height="138.633" filterUnits="userSpaceOnUse" color-interpolation-filters="sRGB">
<feFlood flood-opacity="0" result="BackgroundImageFix"/>
<feColorMatrix in="SourceAlpha" type="matrix" values="0 0 0 0 0 0 0 0 0 0 0 0 0 0 0 0 0 0 127 0" result="hardAlpha"/>
<feOffset dy="4"/>
<feGaussianBlur stdDeviation="15"/>
<feComposite in2="hardAlpha" operator="out"/>
<feColorMatrix type="matrix" values="0 0 0 0 0 0 0 0 0 0 0 0 0 0 0 0 0 0 0.37 0"/>
<feBlend mode="normal" in2="BackgroundImageFix" result="effect1_dropShadow_245_20"/>
<feBlend mode="normal" in="SourceGraphic" in2="effect1_dropShadow_245_20" result="shape"/>
</filter>
<filter id="filter1_d_245_20" x="197.464" y="85.4642" width="135.509" height="135.509" filterUnits="userSpaceOnUse" color-interpolation-filters="sRGB">
<feFlood flood-opacity="0" result="BackgroundImageFix"/>
<feColorMatrix in="SourceAlpha" type="matrix" values="0 0 0 0 0 0 0 0 0 0 0 0 0 0 0 0 0 0 127 0" result="hardAlpha"/>
<feOffset dy="4"/>
<feGaussianBlur stdDeviation="15"/>
<feComposite in2="hardAlpha" operator="out"/>
<feColorMatrix type="matrix" values="0 0 0 0 0 0 0 0 0 0 0 0 0 0 0 0 0 0 0.37 0"/>
<feBlend mode="normal" in2="BackgroundImageFix" result="effect1_dropShadow_245_20"/>
<feBlend mode="normal" in="SourceGraphic" in2="effect1_dropShadow_245_20" result="shape"/>
</filter>
<filter id="filter2_d_245_20" x="1205.57" y="152.509" width="120.586" height="120.586" filterUnits="userSpaceOnUse" color-interpolation-filters="sRGB">
<feFlood flood-opacity="0" result="BackgroundImageFix"/>
<feColorMatrix in="SourceAlpha" type="matrix" values="0 0 0 0 0 0 0 0 0 0 0 0 0 0 0 0 0 0 127 0" result="hardAlpha"/>
<feOffset dy="4"/>
<feGaussianBlur stdDeviation="15"/>
<feComposite in2="hardAlpha" operator="out"/>
<feColorMatrix type="matrix" values="0 0 0 0 0 0 0 0 0 0 0 0 0 0 0 0 0 0 0.37 0"/>
<feBlend mode="normal" in2="BackgroundImageFix" result="effect1_dropShadow_245_20"/>
<feBlend mode="normal" in="SourceGraphic" in2="effect1_dropShadow_245_20" result="shape"/>
</filter>
<filter id="filter3_d_245_20" x="133.402" y="198.345" width="102.817" height="102.817" filterUnits="userSpaceOnUse" color-interpolation-filters="sRGB">
<feFlood flood-opacity="0" result="BackgroundImageFix"/>
<feColorMatrix in="SourceAlpha" type="matrix" values="0 0 0 0 0 0 0 0 0 0 0 0 0 0 0 0 0 0 127 0" result="hardAlpha"/>
<feOffset dy="4"/>
<feGaussianBlur stdDeviation="15"/>
<feComposite in2="hardAlpha" operator="out"/>
<feColorMatrix type="matrix" values="0 0 0 0 0 0 0 0 0 0 0 0 0 0 0 0 0 0 0.37 0"/>
<feBlend mode="normal" in2="BackgroundImageFix" result="effect1_dropShadow_245_20"/>
<feBlend mode="normal" in="SourceGraphic" in2="effect1_dropShadow_245_20" result="shape"/>
</filter>
<linearGradient id="paint0_linear_245_20" x1="241.957" y1="115.087" x2="309.005" y2="166.494" gradientUnits="userSpaceOnUse">
<stop stop-color="#F19EFF"/>
<stop offset="1" stop-color="#DC69EF"/>
</linearGradient>
</defs>
</svg>
